<svg xmlns="http://www.w3.org/2000/svg" viewBox="0 0 303.83 307.95"><defs><style>.cls-1{fill:#1d1d1b;}.cls-1,.cls-2,.cls-3{fill-rule:evenodd;}.cls-2{fill:#0070b9;}.cls-3{fill:#fff;}</style></defs><title>logo</title><g id="Layer_2" data-name="Layer 2"><g id="Layer_1-2" data-name="Layer 1"><path class="cls-1" d="M269.36,134.18l1.89,19.36,6.21-.56-1.07-11.72,6.83-.57.67,7.08,6.47-.51-.75-7.19,6.89-.7,1.06,11.6,6.27-.57-1.75-19.55Zm14-24.23,1.08,3.06h-.13a3.75,3.75,0,0,0,4.38,1.63,3.48,3.48,0,0,0,2.45-3.88l-.81-2.89Zm-20.73-1.46,2.39,8.08L278,112.45l.56,2L267,122.15l2.51,8L282.28,121a9.69,9.69,0,0,0,15.6-9.33l-3.95-13.42ZM257.15,96l3.39,7.4,29-14.34-3.88-7.59ZM240.86,73l4.84,6.15L256,71.27l3.69,4.4L249.2,84.06l5.07,6.4L279.53,70l-4.77-6.51-10,7.88-3.55-4.44,9.76-8-4.65-6.52L240.86,73ZM228.28,48.55a12.16,12.16,0,0,0-1.7,5.63A12.66,12.66,0,0,0,228,60.7,10.16,10.16,0,0,0,239.81,66a10.33,10.33,0,0,0,7.33-11.6l-2.32-8.89a2.67,2.67,0,0,1,.81-2.64,2.52,2.52,0,0,1,2.52-.5,4.83,4.83,0,0,1,2.38,3.14,4.67,4.67,0,0,1-.71,3.31l5.65,2.32a11.75,11.75,0,0,0,.75-7.14,12.45,12.45,0,0,0-3.5-6A9.51,9.51,0,0,0,237,46.17L239.3,56.7a3,3,0,0,1-2,2.93,3.14,3.14,0,0,1-4-1.81,10.52,10.52,0,0,1-.43-3.08,7.51,7.51,0,0,1,.94-3.57Zm-34.9-9.16,6.71,2.89,8.51-16.72-4.38,19.35,3.7,1.94,12.91-13.28L212.62,49.3,219,52.8l15.72-28.38L225,19.16l-9.58,10.22,3.37-14-9.39-5.84Zm-13.65-16,4.56,1-.07-11Zm-11.46,10.2,6.38,1.37,2.51-5.88,7.46,1.74v6.36l7.08,1.61.11-33.83-9.64-2.13Zm-26.44-.63h8l.49-12.21,5.57-.13-.36,12.28h8L164.62.37H156.3l-.37,13.16-5.26-.07L151.15.37,142.84,0Zm-8.59,1.52,3.08-.63L132.8,17.71l-10.14,2.51,1,5.71,4-.5a8.3,8.3,0,0,1,.13,1.38c-.06.43-.06,1-.13,1.49a3.66,3.66,0,0,1-2.94,2.2,3.41,3.41,0,0,1-3.5-1.63A35.32,35.32,0,0,1,119,21.66a38.93,38.93,0,0,1-.82-9.46,2.75,2.75,0,0,1,2-2.43,2.59,2.59,0,0,1,2.69,1,20.22,20.22,0,0,1,1.51,2.58,15,15,0,0,1,.82,1.76l6.69-2.39a18.13,18.13,0,0,0-1.31-3.19,25.32,25.32,0,0,0-2.07-3.13,9.7,9.7,0,0,0-9.58-3.08A9.82,9.82,0,0,0,112,9.45a27.11,27.11,0,0,0-1.32,12.47,25.75,25.75,0,0,0,5,12,9.83,9.83,0,0,0,9.15,3.2,9.48,9.48,0,0,0,6.45-4.51ZM89.46,50.54l6.13-2.81L88.14,32.19,104,43.6l5.25-2.51L95,11.09l-6,3.06,6.51,13.72L81.44,17.78,75,20.73ZM33,78.61l3.38-6.4A34.57,34.57,0,0,0,33,70.84a17.16,17.16,0,0,0-3.88-1,10,10,0,0,0-8.91,5.26,10.18,10.18,0,0,0-.11,9.2,25.82,25.82,0,0,0,8.39,9.41,24.89,24.89,0,0,0,11.66,4.06,10.32,10.32,0,0,0,9.4-4.39,10.66,10.66,0,0,0,.24-12.15c-.69-.74-1.45-1.5-2.19-2.19s-1.49-1.44-2.31-2.13l-4,5.33,1.95,1.44c.56.56,1.2,1.19,1.74,1.75A3.52,3.52,0,0,1,45,89.32a3.58,3.58,0,0,1-3.89,1.33,32,32,0,0,1-7.82-3.52,33.38,33.38,0,0,1-7.4-5.89A2.54,2.54,0,0,1,25.8,78a2.4,2.4,0,0,1,2.46-.93h.11c.83.17,1.7.5,2.52.74S32.32,78.37,33,78.61ZM4.63,116.46,27.82,125a8.72,8.72,0,0,0,3.87.06,9.44,9.44,0,0,0,2.51-.86,11.93,11.93,0,0,0,5.21-5.39,11.28,11.28,0,0,0,.17-9.21,8.69,8.69,0,0,0-1.06-2.08A9.15,9.15,0,0,0,35,104.42L13.4,94.9l-3.82,7.57,23,8.67,0,.06a3.31,3.31,0,0,1,1.12,3.88,3.19,3.19,0,0,1-3.45,2.14L7.45,108.68Zm72.48-58.2,6.83-4.58L65.77,26.74,58.7,31.56Zm-20.23,21,5.39-5.45-5.94-6.13-1.4-5.39,12.91,6.07,5.65-5.76L53,52.37,49.56,40.58l-4.7,4.89L48.8,59.69,39.41,50.5,34,55.87Zm-38,65.08,7.33.76.5-4a4,4,0,0,0-3.07-2.94,3.82,3.82,0,0,0-4.31,2.5ZM6,142.7l6.64.75.37-3.38a3.53,3.53,0,0,0-3.13-3.2,3.65,3.65,0,0,0-3.63,2.57ZM0,150.09l32,3.45,1.62-15.3a8.64,8.64,0,0,0-16.66-3.05,7.91,7.91,0,0,0-7.82-6.4,7.83,7.83,0,0,0-7.53,6.89Zm20.67,58.83L19.3,202.2c-.76.14-1.51.2-2.2.27s-1.19.12-1.82.12l.13-.12a3.29,3.29,0,0,1-3.25-2.7,3.4,3.4,0,0,1,1.69-3.57,63,63,0,0,1,7.63-3.08,72.22,72.22,0,0,1,8.08-2,3,3,0,0,1,3.07,2,2.81,2.81,0,0,1-.94,2.9,15.25,15.25,0,0,1-2,1.62c-.56.5-1.19.82-1.75,1.25l2.38,6.89a35.76,35.76,0,0,0,3.2-1.94,22.62,22.62,0,0,0,3.06-2.61,10.36,10.36,0,0,0,1.82-10.59,10.84,10.84,0,0,0-7.51-6.54,27.8,27.8,0,0,0-12.47,1,27.69,27.69,0,0,0-10.84,6.82A10.58,10.58,0,0,0,6,202.4a10.11,10.11,0,0,0,6.83,6.2,16.39,16.39,0,0,0,4,.57A28,28,0,0,0,20.67,208.92Zm266.87-39.79a2.91,2.91,0,0,1,0-5.82,2.91,2.91,0,1,1,0,5.82Zm-23.31,23.62,31.46,9.45L301.64,184l-6-1.77-3.26,10L266.31,185Zm-4.44,13,30.06,12.53,3.45-7.71L263,197.76Zm4.82,17.66,3.7-6.76c-.75-.51-1.58-.87-2.38-1.31s-1.7-.57-2.56-.81a10.77,10.77,0,0,0-12,14.78,27.61,27.61,0,0,0,8.39,9.08,28.77,28.77,0,0,0,11.53,4.65A11,11,0,0,0,281,226.21a13.84,13.84,0,0,0-4.43-4l-3.95,5.26a9.78,9.78,0,0,1,1.31,1,19.31,19.31,0,0,1,1.5,1.63,3.38,3.38,0,0,1,.24,4.21,3.33,3.33,0,0,1-3.87,1.17,42.49,42.49,0,0,1-7.09-3.75,44.19,44.19,0,0,1-7.25-5.71,3.19,3.19,0,0,1,0-2.93,3.41,3.41,0,0,1,2.46-1.45c.87.2,1.73.58,2.61.88C263.3,222.77,263.93,223.13,264.61,223.44Zm-12.53,47.19,5.27-5.32-11.59-11.66L263.41,259l4.45-4.45-23.24-23.67-4.74,4.82,10.58,10.89-16.3-5.07-5.45,5.44Zm-43.59-8.15,13.9,20.61a6.21,6.21,0,0,0,1.69,1.63,9.39,9.39,0,0,0,2.44,1.25,11.51,11.51,0,0,0,14.67-9.33,7.78,7.78,0,0,0-.13-3.13,8,8,0,0,0-1.08-2.83L225.9,249.89,220.26,254l13.9,19.9a3.46,3.46,0,0,1-5.7,3.9l-13.4-20.12Zm-11.55,34.45a10.48,10.48,0,0,0,11.35,1.57,10,10,0,0,0,5.89-7.89,24.27,24.27,0,0,0-1.52-12.6,25,25,0,0,0-6.25-9.26,10.66,10.66,0,0,0-17.35,6.7,28.47,28.47,0,0,0,7.88,21.48Zm5.14-4.69a3,3,0,0,0,3.34.56,2.91,2.91,0,0,0,1.81-2.56A60.42,60.42,0,0,0,205,281.9a58.23,58.23,0,0,0-3.74-8.15,2.93,2.93,0,0,0-3.33-.82,3,3,0,0,0-2,3,48.6,48.6,0,0,0,2.71,9.21A52.91,52.91,0,0,0,202.08,292.24Zm-24.62-6.58,7-1.51-1.08-3.31a29,29,0,0,0-1.36-2.57,10.12,10.12,0,0,0-17.68,1.94,27.29,27.29,0,0,0-1.49,8.83,26.53,26.53,0,0,0,4.94,15,10.49,10.49,0,0,0,10.16,3.77,10.61,10.61,0,0,0,8.44-7.9,20.62,20.62,0,0,0,.26-2.95,16.51,16.51,0,0,0-.13-3.06l-6.38.37a19.72,19.72,0,0,1,.06,3.26,18,18,0,0,1-.31,1.88,3.56,3.56,0,0,1-3.2,2.19,3.4,3.4,0,0,1-3.2-2.37,50.48,50.48,0,0,1-2.14-8.51l-.73-8.08a2.86,2.86,0,0,1,4.58-1.9c.42.64.8,1.25,1.25,1.94A14,14,0,0,1,177.46,285.66ZM117,304.38l7.26,1.52L127,292.55l12.72-17.35-6.57-1.26-7.46,10.73-1.82-12.54-7.71-1.81,3.69,20.8ZM85.89,292.5l7,3.5,11.38-24,6.09,2.83,2.51-5.69-19.36-9.48-2.88,5.53,6.38,3.2ZM53.68,271.31,73.3,244.13l5.64,4.56L77.5,264.35l8.14-10.77,5.08,3.95L71.3,284.35,66.6,281,69,262,58.94,275Zm.25-45.3-18.6,17.1a10.34,10.34,0,0,0-1.76,2.71,9.56,9.56,0,0,0-.68,2.5A11.78,11.78,0,0,0,36.08,258a11.42,11.42,0,0,0,7.53,3.44,10.11,10.11,0,0,0,2.51-.14,12,12,0,0,0,3.74-1.66l19-17.86-4.94-5L46.29,253.2a3.23,3.23,0,0,1-5.07-3.93l18.17-17.35Zm-27.57,9.72a27.17,27.17,0,0,0,13.22-4,28.05,28.05,0,0,0,8.73-8.28,11.92,11.92,0,0,0-.2-10A11.59,11.59,0,0,0,39,207.22a26.72,26.72,0,0,0-13.92,4.14,25,25,0,0,0-7.51,6.95A11.47,11.47,0,0,0,18,231,11.29,11.29,0,0,0,26.36,235.73Zm0-7.53a42.86,42.86,0,0,0,7.84-3.44A43.66,43.66,0,0,0,42,219.18a2.71,2.71,0,0,0,0-2.74,3,3,0,0,0-2.9-1.52A48.63,48.63,0,0,0,30,218.69a44.23,44.23,0,0,0-6.08,4.2,3.12,3.12,0,0,0-.32,3.88A3.17,3.17,0,0,0,26.36,228.2ZM14.6,169.83a2.88,2.88,0,0,1-2.83-2.89,2.83,2.83,0,0,1,2.83-2.88,2.93,2.93,0,0,1,2.94,2.88A3,3,0,0,1,14.6,169.83Z"/><path class="cls-1" d="M151.88,259.25A105.37,105.37,0,1,1,257.25,154a105.32,105.32,0,0,1-105.37,105.3"/><path class="cls-2" d="M206.63,137.6a8.25,8.25,0,0,1-2.13-.81,7.63,7.63,0,0,1-1.88-1.64l-.82.5a10.07,10.07,0,0,0,2.33,1.95,7.16,7.16,0,0,0,2.56.81l-.06-.81M99.33,126.69a21.37,21.37,0,0,0,5.45.26c4.19-.38,7.45-2.39,10.45-5.27l8.09-8.83,8.65-9.58a35.18,35.18,0,0,1,6.69-4.14,39.16,39.16,0,0,1,5.4-2.14,23.09,23.09,0,0,0-13.35-.29,22.21,22.21,0,0,0-7.89,4l-13.6,12.92a10.41,10.41,0,0,1-2.94,2.19,10.06,10.06,0,0,1-3,.87,37.26,37.26,0,0,0-2.68,5.71Zm20.42-.19-14.09,22.81c-.77.89-1.46,1.82-2.08,2.69-.43.81-.94,1.57-1.31,2.39a.86.86,0,0,0,.3.93.8.8,0,0,0,1.13,0,1.75,1.75,0,0,0,.57-1,3.79,3.79,0,0,0,.2-1.52l.68-.12-.13,4.89c.06.69.06,1.38.18,2s.14,1.25.25,1.87a1.88,1.88,0,0,0,1.08,1.76,1.91,1.91,0,0,0,2-.38,70.86,70.86,0,0,0,9.2-12.09,67.11,67.11,0,0,0,6.08-12.6c1.3-2.87,2.82-5.7,4.44-8.52,1.26-2.06,2.64-4.18,4.08-6.13a12.76,12.76,0,0,1-2.57-.11,6.09,6.09,0,0,1-2.32-.64,21.85,21.85,0,0,1-4.33,2.57A16,16,0,0,1,119.75,126.5Zm-6.08-.19-10.46,14.8a53,53,0,0,1-6.95,6.94,53.59,53.59,0,0,1-7.91,5,34.8,34.8,0,0,0-.87,4.88,45.57,45.57,0,0,0-.06,5.83,1.76,1.76,0,0,0,.83,1.37,1.67,1.67,0,0,0,1.8.13,65.3,65.3,0,0,0,8.64-8,67.92,67.92,0,0,0,6.72-9l13.64-22.1a11.72,11.72,0,0,1-2.89.29A11.05,11.05,0,0,1,113.67,126.31Zm-1.44.32-1.82-.38a13.84,13.84,0,0,1-5.83,2.14,17.06,17.06,0,0,1-5.82-.31,33.11,33.11,0,0,1-4.39,9.52,29.39,29.39,0,0,1-4.32,5.2c-.62,1.62-1.31,3.26-2.06,4.88-.63,1.26-1.26,2.44-2,3.7a1.06,1.06,0,0,0,.25.94,1.25,1.25,0,0,0,1.13.32,44.08,44.08,0,0,0,8-5.09,47.42,47.42,0,0,0,6.89-6.63Zm34.51-22.37-.81-3.45c-.38-1-.82-2.06-1.25-3a27.52,27.52,0,0,0-5.57,2.08,26.06,26.06,0,0,0-6.4,4.51L124,114.1l-7.63,8.46a11.35,11.35,0,0,1-2.07,1.69,14,14,0,0,1-2,1.13,21.37,21.37,0,0,0,8-.43,20.53,20.53,0,0,0,7.15-3.45L141,107.73a16.59,16.59,0,0,1,3.13-2.34C144.94,105,145.87,104.58,146.74,104.26ZM129,121.75a17.42,17.42,0,0,0,3.7.18,7.82,7.82,0,0,0,3.39-1.5,23.48,23.48,0,0,0,6.63-6.44,9,9,0,0,1,2-1.65,6.34,6.34,0,0,1,1.07-.74,5.41,5.41,0,0,1,1.05-.63,14.33,14.33,0,0,0,.14-2.44,18.29,18.29,0,0,0-.27-2.7,15.22,15.22,0,0,0-2.44,1,20.15,20.15,0,0,0-2.88,2Zm7.4,3.44a98.93,98.93,0,0,1-4.46,16.11,94.93,94.93,0,0,1-8.32,17.29,1.65,1.65,0,0,1-1.59.62,1.75,1.75,0,0,1-1.11-.87,6.43,6.43,0,0,1-.94-2.19,8.4,8.4,0,0,1-.51-2.82,2.32,2.32,0,0,1-1.5,2c-.63.39-2.31.5-2.06,0,1.51-2.5,3.56-5.57,5.14-8.51a94.09,94.09,0,0,0,4.06-8.65,84.07,84.07,0,0,1,4.33-8.39c1.19-1.94,2.39-3.83,3.76-5.7Zm9-6,1.12-6.76a9.35,9.35,0,0,0-1.61,1.06,20.24,20.24,0,0,0-2.34,2.25c-1.86,2-3.12,3.82-5.43,5.2a11.92,11.92,0,0,1-3.46,1.5c-.19.06-.05.32-.05.45s.05.44.32.51a7.21,7.21,0,0,0,3.75.8,4.43,4.43,0,0,0,3.25-1.25ZM144,127.89l1.31-7.53-2.57,2.52c-.5.37-2.32,1.68-2.82,1.94s-1.68.63-2.13.75a6.36,6.36,0,0,0,3.7,2.26A6.63,6.63,0,0,0,144,127.89ZM141.67,129l-2.44-.74a6.67,6.67,0,0,1-2.38-2.06c-.94,3.69-1.95,7.32-3,10.89-1,3.24-2.07,6.52-3.14,9.77a8.23,8.23,0,0,0-.19,1.37,8.79,8.79,0,0,0,.06,1.26,7.18,7.18,0,0,0,.93,2.75,7.83,7.83,0,0,0,1.57,1.95,1.43,1.43,0,0,0,.82.37,1.83,1.83,0,0,0,.89-.24,54.4,54.4,0,0,0,5.62-15A56,56,0,0,0,141.67,129Zm.06,27a27.17,27.17,0,0,0,2.57-5.89,25.06,25.06,0,0,0,1.07-6.78,24.32,24.32,0,0,1-1.31-4.82,26.18,26.18,0,0,1-.2-9.46l-1.39.12a65.46,65.46,0,0,1-1.62,11.72,63.55,63.55,0,0,1-3,9.72,9.07,9.07,0,0,0,1.49,3.06,8.7,8.7,0,0,0,2.38,2.38Zm5.77,3.25,1.31-10.08-2.88-4.2a42.32,42.32,0,0,1-1,5.75,44.44,44.44,0,0,1-1.46,4.21,9.25,9.25,0,0,0,1.7,2.51A10.53,10.53,0,0,0,147.5,159.21Zm5.95-4.32-2-2a9.94,9.94,0,0,1-1.64-2,8.55,8.55,0,0,0,.37,5.56,7.93,7.93,0,0,0,3.45,3.83,5.94,5.94,0,0,0,.38-2.13A8,8,0,0,0,153.45,154.89Zm24.86-5.69-4.37-2.89a10.94,10.94,0,0,1-2.58-3.51,44.87,44.87,0,0,1-2.94-9.65,49.85,49.85,0,0,1-.63-11.08l1.5-20.37a13.15,13.15,0,0,0-2.87-8.33,12.6,12.6,0,0,0-5.7-4,27,27,0,0,1,1.05,4.07,28,28,0,0,1,.45,4.45l-.88,16.48a78.08,78.08,0,0,0,.06,8.66c0,3.2.24,6.32.5,9.52a19.69,19.69,0,0,0,5.4,12,17.5,17.5,0,0,0,6.82,4.5,4.08,4.08,0,0,0,1.95.45A5.73,5.73,0,0,0,178.31,149.2Zm-55.43,48.91c1.19.25,2.38.43,3.56.63a28.92,28.92,0,0,0,4.14.62,33.64,33.64,0,0,1,9.21,2.14,32.14,32.14,0,0,1,7,3.69l-.62-2.69a2.73,2.73,0,0,1,.3-1.38,3.71,3.71,0,0,1,1.7-1.82l.69.88v-.07a3.41,3.41,0,0,0-1.63,1.57,3.36,3.36,0,0,0,.38,3.58,15.3,15.3,0,0,1,.81,2.26,10,10,0,0,1,.25,2.37,4.19,4.19,0,0,0,4,5.14,4.12,4.12,0,0,0,4.18-4.26,2.25,2.25,0,0,1-.19-1.26,2.21,2.21,0,0,1,.46-1.12,26.8,26.8,0,0,1,1.8-3.13,23.94,23.94,0,0,1,3-3.52,65.35,65.35,0,0,1,14.84-8A64,64,0,0,1,195,189.78a19.71,19.71,0,0,0,5-1.57,19.09,19.09,0,0,0,2.64-1.62l-.07-.07a8.43,8.43,0,0,1,.5-5.64,7.66,7.66,0,0,1,3.51-3.62l.12-4.33a7.52,7.52,0,0,1-3.32-6.77,7.93,7.93,0,0,1,3.83-6.33l-.07-4c-2.18-1.37-3-3.88-3.12-6.38a8,8,0,0,1,3.37-6.95l-.25-3.2h0a8.91,8.91,0,0,1-3.12-1A9.15,9.15,0,0,1,201.3,136c-1.18.56-2.32,1-3.5,1.49a49.48,49.48,0,0,1-9.39,2.65,11.42,11.42,0,0,1-2.52,5.89,11.21,11.21,0,0,1-6.5,3.88,20.87,20.87,0,0,1,4.37.37,23.27,23.27,0,0,1,3.89,1.19,9.61,9.61,0,0,1,2,1.06c.49.39,1.07.89,1.63,1.39a1.14,1.14,0,0,0,.63.38,1.88,1.88,0,0,0,.76.18l-.39.77a1.47,1.47,0,0,1-.75-.2,1.38,1.38,0,0,1-.87-.57,10.82,10.82,0,0,1-1.32-.88c-.81-.44-1.69-.94-2.51-1.38a22.36,22.36,0,0,0-3.37-.68,35.69,35.69,0,0,0-3.83-.37,19.21,19.21,0,0,1-13.46-6.41,19.66,19.66,0,0,1-5-12.08c-.25-3.08-.45-6.14-.56-9.21s-.13-6-.13-9l.93-16a21.27,21.27,0,0,0-4-12.77,21.62,21.62,0,0,0-7.76-6.53,34.81,34.81,0,0,0-11.28-2.44A35.55,35.55,0,0,0,120,81a82.78,82.78,0,0,0-26.67,27.5,157.68,157.68,0,0,0-11.16,18.63,160.8,160.8,0,0,0-9.22,22.72,51.85,51.85,0,0,1-1.74,5.51,63,63,0,0,1-2.83,7,1.06,1.06,0,0,0,.07,1.07.87.87,0,0,0,1.13.25,33.72,33.72,0,0,0,11.14-7.21,32.83,32.83,0,0,0,7.71-12.09,7.33,7.33,0,0,1-6.64,2.25l.06-1.18a9.35,9.35,0,0,0,2.63-.2,11.65,11.65,0,0,0,2.45-1A30.59,30.59,0,0,0,94,136.47a28.79,28.79,0,0,0,3.82-9.78c.51-1.8,1.13-3.68,1.82-5.51a46.07,46.07,0,0,1,2.13-4.2c-.62.13-1.12.19-1.68.32a7.22,7.22,0,0,1-1.14,0l.45-.81a12.74,12.74,0,0,0,5.88-1.63c1.81-1,4.08-3.26,5.33-4.21,2.56-2.12,4.25-4.19,7-6.83,3.56-3.44,7.71-7.33,12.71-8.07a31.5,31.5,0,0,1,10.09-.44,23.49,23.49,0,0,1,8.21,2.82l.5,1.25c-.62-.38-1.25-.75-1.88-1.06a10.19,10.19,0,0,0-1.88-.69,24.52,24.52,0,0,1,2.2,6.51,30.08,30.08,0,0,1,.17,6.77c0,1.19-2.49,9.71-2.56,16-.05,11.28,0,10.92,0,0a26.64,26.64,0,0,0-.43,9.16,27.74,27.74,0,0,0,2.88,9.65,46.29,46.29,0,0,0,10,11.9c1.87,1.76,3.87,3.45,5.81,5.14,2.12,1.69,4.2,3.31,6.39,4.89l.13.93-5.2-3.56a12.37,12.37,0,0,0,4.58,5.37,12.57,12.57,0,0,0,5.82,2.27,7.66,7.66,0,0,1,.94.24,8.81,8.81,0,0,1,.92.57l-.11.81c-.37-.19-.88-.38-1.24-.56l-.95-.25a13.27,13.27,0,0,1-7.08-3.2,13.84,13.84,0,0,1-4.27-6.19l-8.63-7.84a8.94,8.94,0,0,1,.24,2.58,8.13,8.13,0,0,1-.8,3,7.53,7.53,0,0,1-2.51-1.76,7.83,7.83,0,0,1-1.69-2.51l-1.26.58-.43,3.31-2.95-2.19c-2.44.95-4.89,1.95-7.14,3.07-2.44,1.19-4.83,2.56-7.14,3.95l-1.38.43a7,7,0,0,1-2.19,4.32,7.57,7.57,0,0,1-4.69,2.08l-1,4.45a7.25,7.25,0,0,1,2.64,6.45,6.94,6.94,0,0,1-4.07,5.57l-.38,4.95c.44.45,1,.82,1.44,1.31A10.75,10.75,0,0,1,122.88,198.11ZM186.27,129a181.82,181.82,0,0,1-7.14-17.1c-.24-.68-.51-1.32-.75-1.94A52.53,52.53,0,0,1,176,96.45a55.34,55.34,0,0,1,.56-10.17,15.73,15.73,0,0,1,17.72-12v0a34.63,34.63,0,0,1,28.08,27.61,18.52,18.52,0,0,1-3.27-.94,23.87,23.87,0,0,1-3.63-1.55,3.74,3.74,0,0,0-.24-2.2,3.89,3.89,0,0,0-1.69-1.89,1.74,1.74,0,0,0-1.57.2,1.51,1.51,0,0,0-.7,1.31,2.34,2.34,0,0,0,0,1.57,3.44,3.44,0,0,0,1.37,2.12,27.1,27.1,0,0,1-.25,4.2,30.11,30.11,0,0,1-.8,3.64,29.74,29.74,0,0,1-4.83-5.26,28.08,28.08,0,0,1-4.25-8.38A17.29,17.29,0,0,0,200,87.86a24.47,24.47,0,0,0-2.44-3A6.62,6.62,0,0,0,187,90a42.1,42.1,0,0,0,1,7.51,39.14,39.14,0,0,0,3.89,10.23L200.69,122l-.07,1.13c1.5.26,1.18,2.57-.31,2.7-1.33.11-1.76-2.33-.45-2.65.88-.3-1.06-1.75-1.94-2.25a4.18,4.18,0,0,0-2.63-.43,2.41,2.41,0,0,0-.25-1.06,2.48,2.48,0,0,0-1.56-1.14,3.24,3.24,0,0,1-1.64-.31,4.56,4.56,0,0,1-1.63-1.18,4.56,4.56,0,0,1-.31,2.44,4.48,4.48,0,0,1-1.69,1.88,1.58,1.58,0,0,0,0,.94,1.22,1.22,0,0,0,.56.81,4.47,4.47,0,0,0-1.63,2.07,3.86,3.86,0,0,0,.32,3.38,1.39,1.39,0,0,1,.14,2.75,1.34,1.34,0,0,1-1.33-2.13Zm27.12-19.54c1.88,2.81,3.77,5.64,5.46,8.52,1.14,2.07,2.26,4.13,3.38,6.26a1,1,0,0,0,1.18.76,1,1,0,0,0,.58-1.45,49.92,49.92,0,0,1-2-7.32,35.42,35.42,0,0,1-.7-5.27,8.28,8.28,0,0,0-.49-2.37,14.43,14.43,0,0,0-1-1.63.93.93,0,0,0-.57-.25,1.75,1.75,0,0,0-.81.17Zm-.67-1.06,6.13-2.7a1,1,0,0,1,1.06-.57,1.14,1.14,0,0,1,1,.88l.44,1.46a1.88,1.88,0,0,0,.06.8,1.14,1.14,0,0,0,.13.49.94.94,0,0,0,1,.51.85.85,0,0,0,.82-.62,21.19,21.19,0,0,0,.17-2.57,15.42,15.42,0,0,0-.37-3.38c-1.38-.25-2.64-.65-4-1a38.92,38.92,0,0,1-4.06-1.7,2.06,2.06,0,0,1-.51.51c-.31.18-.57.37-.81.5-.14,1.13-.2,2.31-.32,3.46A28.72,28.72,0,0,1,212.72,108.41ZM214,98.32a.9.9,0,0,1-.84-.82.84.84,0,0,1,.84-.8.86.86,0,0,1,.8.8A.93.93,0,0,1,214,98.32ZM189.65,135.4l2-.56c.68-.24,1.42-.56,2.19-.82a2.4,2.4,0,0,0-2.84-1.19A2.25,2.25,0,0,0,189.65,135.4Zm3.58-9.09a1.44,1.44,0,0,1-1.49-1.42,1.56,1.56,0,0,1,1.49-1.57,1.62,1.62,0,0,1,1.55,1.57A1.49,1.49,0,0,1,193.23,126.31Zm.13-.61a1,1,0,0,1-.84-.81.9.9,0,0,1,.84-.82.83.83,0,0,1,.81.82A.87.87,0,0,1,193.36,125.7Zm1.82,5.94a1.76,1.76,0,1,1,0-3.51,1.76,1.76,0,0,1,0,3.51Zm-.27-.56a.94.94,0,1,1,.94-.93A.88.88,0,0,1,194.91,131.08Zm-10.84,5.57-8-9.89,2.06.33a12.89,12.89,0,0,1,2.38.74,13.33,13.33,0,0,1,1.06.88,7.83,7.83,0,0,1,.63,1.37,2.61,2.61,0,0,1,1.45-1.32,2.51,2.51,0,0,1,1.55,0,2.28,2.28,0,1,0,2.82-1.19,3,3,0,0,1,.19-2.7,3.17,3.17,0,0,1,2.51-1.69l.06-.7h-1a.51.51,0,0,1-.3-.93,5.29,5.29,0,0,0,1.05-1.25,4.35,4.35,0,0,0,.5-1.63,2.87,2.87,0,0,0,1.5.87h1a.86.86,0,0,1,.75.69,3.49,3.49,0,0,1,.05.75l-.87.69.56.38a4.09,4.09,0,0,1,2.64-.25,3.63,3.63,0,0,1,1.94,1.26,2.26,2.26,0,0,0,2.32,3.68,2.29,2.29,0,0,0,.63-4.13,1.55,1.55,0,0,1,.93-1,2.3,2.3,0,0,1,1.88-.32,2.84,2.84,0,0,1,.06-1.86,2.4,2.4,0,0,1,1.26-1.2,4.32,4.32,0,0,0,1-.76,2.74,2.74,0,0,0,.75-1.61l1.39,11.45-1.89,1.25c-.62-.23-1.25-.54-1.95-.74a6.93,6.93,0,0,0-2.31-.3,3.2,3.2,0,0,0-2.07.67,2.69,2.69,0,0,0-1.05,1.64,11.42,11.42,0,0,0-.14,2.12l-4.58,1.69a3.37,3.37,0,0,0-3.93-1.69,3.43,3.43,0,0,0-2.32,3.76Zm-4.64-4.82a.87.87,0,0,1-.85-.26,1.1,1.1,0,0,1-.2-1.12Zm1.58,2.25,1.25,1.51a.93.93,0,0,1-1.25-.37A1,1,0,0,1,181,134.08Zm27.82-12.65a1.21,1.21,0,0,0,.49-1,1,1,0,0,0-.68-.94Zm.42,3.95a.86.86,0,0,0,.39-1.07,1.53,1.53,0,0,0-.7-.68ZM186.52,140l12.15-3.63a71.77,71.77,0,0,0,8.77-4.39l-2.19-1.82a76.24,76.24,0,0,1-10.58,4.45,70.63,70.63,0,0,1-9.4,2.7,1.53,1.53,0,0,0,1.25,2.69Zm23.12-9,1.44-1.11a1.28,1.28,0,0,0-.32-1.77,1.35,1.35,0,0,0-1.06-.37l-2.07,1.37c.37.32.69.64,1,1S209.25,130.71,209.64,131Zm-9.33.63.93-.44v-.49l.19-.69a3.86,3.86,0,0,1,.37-.44,1.64,1.64,0,0,1,.76-.31,4.38,4.38,0,0,1,1.25.06c.39,0,.5.25.88.5l1.25-.62a6.06,6.06,0,0,0-2.07-.71c-.44-.06-.75-.06-1.05-.11a3,3,0,0,0-1.58.56,2,2,0,0,0-.74.88.68.68,0,0,0-.19.56A3.29,3.29,0,0,0,200.31,131.64Zm1.56-.63,2.07-.93-.37-.18a1.7,1.7,0,0,0-1.14,0C201.87,130.15,201.8,130.45,201.87,131Zm5.95.76,1-.57-2.2-1.75-.87.57Zm1.56,4.88.26,1.71a7.11,7.11,0,0,0,.55-3.27,6.56,6.56,0,0,0-.87-2.69l-.68.43a4.13,4.13,0,0,1,.74,2A4.08,4.08,0,0,1,209.38,136.65Zm-5.51-1.43a3.48,3.48,0,0,0,1.32,1.05,4.45,4.45,0,0,0,1.69.52,1.09,1.09,0,0,1,.5-1.46,1.07,1.07,0,0,1,1.19,0v-1.05a7.94,7.94,0,0,0-.3-1.31Zm3.89,17.1.2.12c.17-.56.48-.94,1-.94a1.28,1.28,0,0,1,1.14.82,5.86,5.86,0,0,0,.81-3.12,5.46,5.46,0,0,0-.76-2.77,1.18,1.18,0,0,1-1.19,1.31,1.24,1.24,0,0,1-1.18-.5,4,4,0,0,0-.88,2.39A4.93,4.93,0,0,0,207.76,152.32Zm.24-6.26a.76.76,0,0,0,.51.19.64.64,0,0,0,.63-.38l-.87-9.84a.75.75,0,0,0-.76-.32.62.62,0,0,0-.44.56Zm2.08,8.83a7.24,7.24,0,0,0,2.55-5.95,7.5,7.5,0,0,0-2.81-5.46l.2,1.31a7.24,7.24,0,0,1,1.56,4.65,7.71,7.71,0,0,1-1.56,4.08Zm-2.94,0,.05-1.44a6.68,6.68,0,0,1-1.25-3.95,6.29,6.29,0,0,1,1.32-3.76l-.19-1.61a7,7,0,0,0-2.57,5.43A7.33,7.33,0,0,0,207.14,154.89Zm.55,9.08c.13.18.27.5.51.5s.37-.32.57-.5l.44-11.16a1.14,1.14,0,0,0-.57-.37c-.25,0-.51.12-.56.31Zm-.5,5.44a1.62,1.62,0,0,1,1.25-.49,1.54,1.54,0,0,1,1.2.63,6,6,0,0,0,.62-2.44,6.3,6.3,0,0,0-.62-2.82,1.34,1.34,0,0,1-1.13,1.25,1.32,1.32,0,0,1-1.32-.82,3.69,3.69,0,0,0-.69,2.25A4.08,4.08,0,0,0,207.19,169.41Zm2.58,1.57v1.46a6.94,6.94,0,0,0,2.86-5.21,7.38,7.38,0,0,0-2.68-6.07l-.18,1.74a6.58,6.58,0,0,1,1.49,4.33A6.81,6.81,0,0,1,209.77,171Zm-3.14,1.46.06-1.77a6.67,6.67,0,0,1-1.06-3.89,6.41,6.41,0,0,1,1.12-3.5l.06-1.63a6.32,6.32,0,0,0-2.81,5.21A9.13,9.13,0,0,0,206.63,172.44Zm.44,8.64a.56.56,0,0,0,.5.62.86.86,0,0,0,.63-.32l.44-11.33c-.13-.19-.25-.33-.44-.33a.58.58,0,0,0-.76.51Zm.37,7.13.52,1.14a6.92,6.92,0,0,0,3.38-4.58,7.48,7.48,0,0,0-1.52-6l-.5.63a8,8,0,0,1,.57,4.34A7.24,7.24,0,0,1,207.44,188.21Zm-3.07.77.64-1a6.16,6.16,0,0,1-.57-4.5,6.9,6.9,0,0,1,1.93-3.14l.2-1.88a6.91,6.91,0,0,0-3.45,4.64A7.53,7.53,0,0,0,204.37,189Zm1.26-4.83,1.44-1.38-.63-.94Zm.45,3.18-3,12c-.13.32-.06.57.2.69a.63.63,0,0,0,.55-.06l3.2-12.53a.81.81,0,0,0-.57-.37C206.37,187.09,206.26,187.27,206.08,187.33Zm-8.59,17.1.93-.43a7.44,7.44,0,0,1,1.5-4.07,8.38,8.38,0,0,1,2.77-2.26l-.32-1.11a7.18,7.18,0,0,0-3.08,2.12A7.83,7.83,0,0,0,197.49,204.43Zm2.19,2.95a7,7,0,0,0,6.21-10.33l-.88.62a6.67,6.67,0,0,1-1.44,6.27,7.14,7.14,0,0,1-3.52,2.07ZM189.47,209a.37.37,0,0,0-.24.49c0,.32.24.44.5.44l10.45-4.63c0-.13.13-.24,0-.37a.42.42,0,0,0-.37-.33Zm-5.95-4.53.44.89a7.77,7.77,0,0,1,4.12.5,7.39,7.39,0,0,1,2.44,1.56l.9-.17a12,12,0,0,0-3.58-2.7A7.92,7.92,0,0,0,183.52,204.43Zm-2.38,3A7.21,7.21,0,0,0,192.78,211l-.87-.5a6.27,6.27,0,0,1-5.89.5,5.79,5.79,0,0,1-3.44-3.44Zm2.38-.07-10-6.32a.43.43,0,0,1,.33-.56.27.27,0,0,1,.44.05l9.82,6a.56.56,0,0,1,.13.7A.71.71,0,0,1,183.52,207.38Zm-7.45-6.69,1.12.17a12,12,0,0,0-.44-2.87,8.06,8.06,0,0,0-1.13-2.32l-1.37.68a7.17,7.17,0,0,1,1,2A11.28,11.28,0,0,1,176.07,200.69Zm-7-.76-.51,1.57a9.61,9.61,0,0,0,2.63,1.5,8.2,8.2,0,0,0,3.52.38l-.51-.83a6.32,6.32,0,0,1-3-.87A4.86,4.86,0,0,1,169.05,199.93ZM209.14,178l.94.13a35.61,35.61,0,0,0,2.44-37.28l-1.69-2.57-1.51,1.51.13,2.64v-.13a8.13,8.13,0,0,1,3.94,6.83,8.26,8.26,0,0,1-3.62,7L209.7,160a8.22,8.22,0,0,1,3.44,7.21,7.82,7.82,0,0,1-3.82,6.39Zm-93.6,18.48a45.48,45.48,0,0,1-6.06-2.55c-2.08-1.08-4.14-2.2-6.09-3.4a7.91,7.91,0,0,1,2.64-.88,8.07,8.07,0,0,1,2.5-.12l.12-.88a4.11,4.11,0,0,0-1.25-.18,3.83,3.83,0,0,0-1.62.39,65.61,65.61,0,0,1-9.15,1.85,59,59,0,0,1-8.83.63v.06a7.43,7.43,0,0,1-2-.55,6.25,6.25,0,0,1-2.12-1.46,2.6,2.6,0,0,1,.7-2.55,2.41,2.41,0,0,1,1.18-.68l24.68-12.73h.07c1.37-.69,2.75-1.37,4.13-1.94s2.56-.93,4-1.38a4.93,4.93,0,0,0,.56,1.82,5.66,5.66,0,0,0,.88,1.62l-.69,4a7.08,7.08,0,0,0-5,5.76,7.19,7.19,0,0,0,3.26,6.95l-.38,5.12ZM132.91,161h1c.06-.17.19-.3.32-.55a1.81,1.81,0,0,1,.62-.57,4.52,4.52,0,0,1,2.69.33,5.9,5.9,0,0,1,1.76.87l1.25-.7a6.25,6.25,0,0,0-2.68-1.55,5.93,5.93,0,0,0-3.77.24,2.72,2.72,0,0,0-.76.81A6.28,6.28,0,0,0,132.91,161Zm2.5.51L125.77,165a.35.35,0,0,0-.13.43.45.45,0,0,0,.56.45l9.77-3.45a.93.93,0,0,0,.07-.63A.68.68,0,0,0,135.41,161.46Zm-12.47,9.72-.19,1.26a6.4,6.4,0,0,0,4.07-1.77,6.53,6.53,0,0,0,2.06-4.78l-1.43.21a5.53,5.53,0,0,1-1.63,3.52A5.36,5.36,0,0,1,122.94,171.18Zm-.19-2.64a3.52,3.52,0,0,0,.38.63,4.89,4.89,0,0,1,.12,1,4.3,4.3,0,0,0,1.57-.88,4.47,4.47,0,0,0,1-1.63Zm-2.63,3.14.5-1.33a5.29,5.29,0,0,1,1.19-4.57,5.73,5.73,0,0,1,5.14-2l.82-.89a6.16,6.16,0,0,0-7.65,8.78Zm1.06-1.45-2,10.53a.69.69,0,0,0,.44.24,1,1,0,0,0,.62-.18l2-10.59c-.18-.12-.3-.25-.44-.25A.67.67,0,0,0,121.18,170.23ZM117.8,186l-.25-2a5.27,5.27,0,0,1,1.07-3.18,1,1,0,0,0,.8,1,1,1,0,0,0,1.2-.63,5.26,5.26,0,0,1,.45,2.86,4.79,4.79,0,0,1-1,2.39,1.37,1.37,0,0,0-.94-1.24A1.25,1.25,0,0,0,117.8,186Zm2.26,3a7.12,7.12,0,0,0,3-4.64,7.3,7.3,0,0,0-1.56-5.59l-.43,1.07a6.06,6.06,0,0,1,1.18,4.33,6.32,6.32,0,0,1-2.06,3.63Zm-2.43-.33.17-1.42a5.9,5.9,0,0,1-.93-3.58,5.76,5.76,0,0,1,1.8-4.09l.32-1.38a6.13,6.13,0,0,0-1.36,10.47Zm-.08,9.89a.6.6,0,0,0,.5.63.61.61,0,0,0,.7-.49l.62-12a.76.76,0,0,0-1.13,0Zm1.7,6.35-.07,1.74a5.81,5.81,0,0,0,.31-10.15l-.12,1a5.69,5.69,0,0,1,1.32,3.81A5.83,5.83,0,0,1,119.25,204.89Zm-2.76,1.81.25-1.68a5.45,5.45,0,0,1-1.32-3.72,5.69,5.69,0,0,1,1.49-3.81v-1.58a6.39,6.39,0,0,0-.42,10.79Zm.8,9.39a.51.51,0,0,0,.39.51.62.62,0,0,0,.61-.19l.26-11.9a.69.69,0,0,0-.63-.2c-.18.06-.29.25-.37.5Zm-1.5-2.06a6,6,0,0,0-.62,9.51,4.06,4.06,0,0,0,2.25.81,7.93,7.93,0,0,0,1.51-.16,6.7,6.7,0,0,0,2.44-4.15,6.61,6.61,0,0,0-2-5.69l-.3,1.24a5.73,5.73,0,0,1,.94,3.77,5.55,5.55,0,0,1-1.51,3.44,1.35,1.35,0,0,1-.92.63,1.75,1.75,0,0,1-1.64-.76,5.4,5.4,0,0,1-1.38-3.31,5.94,5.94,0,0,1,1.55-4.2Zm45.92-10.9a4.16,4.16,0,0,0-.26,3.07,4.78,4.78,0,0,0,1.53,2.13l3.68.06a8.25,8.25,0,0,0,1.33-3.88,9,9,0,0,0-.69-3.45,2.35,2.35,0,0,0,.8-.75,1.89,1.89,0,0,0,.32-1.31Zm1.13,6.25-1,14.05a3.24,3.24,0,0,1-.81,1.62,4.63,4.63,0,0,1-1.25,1l11.53,2v.08c.61.13,1.29.25,2.06.43.61.26,1.25.45,1.74.71a8.82,8.82,0,0,1,2.21-1.27,13,13,0,0,1,3.19-1.06,9.58,9.58,0,0,1-3.39-2.32,12.72,12.72,0,0,1-1.93-2.38c-.94.06-1.82.06-2.77.06a33.33,33.33,0,0,1-4.25-.06,5.37,5.37,0,0,0,1.38,1,9,9,0,0,0,1.62.75v.63A7.42,7.42,0,0,1,168,223.3a6.39,6.39,0,0,1-2.53-5.27l.4-8.33Zm-12.33,6.78-1.26,15.45a4.62,4.62,0,0,1-.32,1.14A5.53,5.53,0,0,1,148,234l8.33,2.51a19.17,19.17,0,0,1,2.7,1.18c.68.49,1.3.89,1.93,1.44a15.79,15.79,0,0,1,8.53-3.44,12.17,12.17,0,0,1-1.89-1.76c-.24-.37-.57-.75-.82-1.18-1.62-.2-3.24-.37-4.81-.7-2-.25-3.94-.55-5.95-.94a5.19,5.19,0,0,0,1.51,1.13,5.65,5.65,0,0,0,1.74.51l-.19.5a6.26,6.26,0,0,1-4.26-2.07,6.58,6.58,0,0,1-1.8-4.32l.5-10.47Z"/><path class="cls-3" d="M206.63,137.6a8.25,8.25,0,0,1-2.13-.81,7.63,7.63,0,0,1-1.88-1.64l-.82.5a10.07,10.07,0,0,0,2.33,1.95,7.16,7.16,0,0,0,2.56.81l-.06-.81M99.33,126.69a21.37,21.37,0,0,0,5.45.26c4.19-.38,7.45-2.39,10.45-5.27l8.09-8.83,8.65-9.58a35.18,35.18,0,0,1,6.69-4.14,39.16,39.16,0,0,1,5.4-2.14,23.09,23.09,0,0,0-13.35-.29,22.21,22.21,0,0,0-7.89,4l-13.6,12.92a10.41,10.41,0,0,1-2.94,2.19,10.06,10.06,0,0,1-3,.87,37.26,37.26,0,0,0-2.68,5.71Zm20.42-.19-14.09,22.81c-.77.89-1.46,1.82-2.08,2.69-.43.81-.94,1.57-1.31,2.39a.86.86,0,0,0,.3.93.8.8,0,0,0,1.13,0,1.75,1.75,0,0,0,.57-1,3.79,3.79,0,0,0,.2-1.52l.68-.12-.13,4.89c.06.69.06,1.38.18,2s.14,1.25.25,1.87a1.88,1.88,0,0,0,1.08,1.76,1.91,1.91,0,0,0,2-.38,70.86,70.86,0,0,0,9.2-12.09,67.11,67.11,0,0,0,6.08-12.6c1.3-2.87,2.82-5.7,4.44-8.52,1.26-2.06,2.64-4.18,4.08-6.13a12.76,12.76,0,0,1-2.57-.11,6.09,6.09,0,0,1-2.32-.64,21.85,21.85,0,0,1-4.33,2.57A16,16,0,0,1,119.75,126.5Zm-6.08-.19-10.46,14.8a53,53,0,0,1-6.95,6.94,53.59,53.59,0,0,1-7.91,5,34.8,34.8,0,0,0-.87,4.88,45.57,45.57,0,0,0-.06,5.83,1.76,1.76,0,0,0,.83,1.37,1.67,1.67,0,0,0,1.8.13,65.3,65.3,0,0,0,8.64-8,67.92,67.92,0,0,0,6.72-9l13.64-22.1a11.72,11.72,0,0,1-2.89.29A11.05,11.05,0,0,1,113.67,126.31Zm-1.44.32-1.82-.38a13.84,13.84,0,0,1-5.83,2.14,17.06,17.06,0,0,1-5.82-.31,33.11,33.11,0,0,1-4.39,9.52,29.39,29.39,0,0,1-4.32,5.2c-.62,1.62-1.31,3.26-2.06,4.88-.63,1.26-1.26,2.44-2,3.7a1.06,1.06,0,0,0,.25.94,1.25,1.25,0,0,0,1.13.32,44.08,44.08,0,0,0,8-5.09,47.42,47.42,0,0,0,6.89-6.63Zm34.51-22.37-.81-3.45c-.38-1-.82-2.06-1.25-3a27.52,27.52,0,0,0-5.57,2.08,26.06,26.06,0,0,0-6.4,4.51L124,114.1l-7.63,8.46a11.35,11.35,0,0,1-2.07,1.69,14,14,0,0,1-2,1.13,21.37,21.37,0,0,0,8-.43,20.53,20.53,0,0,0,7.15-3.45L141,107.73a16.59,16.59,0,0,1,3.13-2.34C144.94,105,145.87,104.58,146.74,104.26ZM129,121.75a17.42,17.42,0,0,0,3.7.18,7.82,7.82,0,0,0,3.39-1.5,23.48,23.48,0,0,0,6.63-6.44,9,9,0,0,1,2-1.65,6.34,6.34,0,0,1,1.07-.74,5.41,5.41,0,0,1,1.05-.63,14.33,14.33,0,0,0,.14-2.44,18.29,18.29,0,0,0-.27-2.7,15.22,15.22,0,0,0-2.44,1,20.15,20.15,0,0,0-2.88,2Zm7.4,3.44a98.93,98.93,0,0,1-4.46,16.11,94.93,94.93,0,0,1-8.32,17.29,1.65,1.65,0,0,1-1.59.62,1.75,1.75,0,0,1-1.11-.87,6.43,6.43,0,0,1-.94-2.19,8.4,8.4,0,0,1-.51-2.82,2.32,2.32,0,0,1-1.5,2c-.63.39-2.31.5-2.06,0,1.51-2.5,3.56-5.57,5.14-8.51a94.09,94.09,0,0,0,4.06-8.65,84.07,84.07,0,0,1,4.33-8.39c1.19-1.94,2.39-3.83,3.76-5.7Zm9-6,1.12-6.76a9.35,9.35,0,0,0-1.61,1.06,20.24,20.24,0,0,0-2.34,2.25c-1.86,2-3.12,3.82-5.43,5.2a11.92,11.92,0,0,1-3.46,1.5c-.19.06-.05.32-.05.45s.05.44.32.51a7.21,7.21,0,0,0,3.75.8,4.43,4.43,0,0,0,3.25-1.25ZM144,127.89l1.31-7.53-2.57,2.52c-.5.37-2.32,1.68-2.82,1.94s-1.68.63-2.13.75a6.36,6.36,0,0,0,3.7,2.26A6.63,6.63,0,0,0,144,127.89ZM141.67,129l-2.44-.74a6.67,6.67,0,0,1-2.38-2.06c-.94,3.69-1.95,7.32-3,10.89-1,3.24-2.07,6.52-3.14,9.77a8.23,8.23,0,0,0-.19,1.37,8.79,8.79,0,0,0,.06,1.26,7.18,7.18,0,0,0,.93,2.75,7.83,7.83,0,0,0,1.57,1.95,1.43,1.43,0,0,0,.82.37,1.83,1.83,0,0,0,.89-.24,54.4,54.4,0,0,0,5.62-15A56,56,0,0,0,141.67,129Zm.06,27a27.17,27.17,0,0,0,2.57-5.89,25.06,25.06,0,0,0,1.07-6.78,24.32,24.32,0,0,1-1.31-4.82,26.18,26.18,0,0,1-.2-9.46l-1.39.12a65.46,65.46,0,0,1-1.62,11.72,63.55,63.55,0,0,1-3,9.72,9.07,9.07,0,0,0,1.49,3.06,8.7,8.7,0,0,0,2.38,2.38Zm5.77,3.25,1.31-10.08-2.88-4.2a42.32,42.32,0,0,1-1,5.75,44.44,44.44,0,0,1-1.46,4.21,9.25,9.25,0,0,0,1.7,2.51A10.53,10.53,0,0,0,147.5,159.21Zm5.95-4.32-2-2a9.94,9.94,0,0,1-1.64-2,8.55,8.55,0,0,0,.37,5.56,7.93,7.93,0,0,0,3.45,3.83,5.94,5.94,0,0,0,.38-2.13A8,8,0,0,0,153.45,154.89Zm24.86-5.69-4.37-2.89a10.94,10.94,0,0,1-2.58-3.51,44.87,44.87,0,0,1-2.94-9.65,49.85,49.85,0,0,1-.63-11.08l1.5-20.37a13.15,13.15,0,0,0-2.87-8.33,12.6,12.6,0,0,0-5.7-4,27,27,0,0,1,1.05,4.07,28,28,0,0,1,.45,4.45l-.88,16.48a78.08,78.08,0,0,0,.06,8.66c0,3.2.24,6.32.5,9.52a19.69,19.69,0,0,0,5.4,12,17.5,17.5,0,0,0,6.82,4.5,4.08,4.08,0,0,0,1.95.45A5.73,5.73,0,0,0,178.31,149.2Zm29.13-6.65-.25-3.2h0a8.91,8.91,0,0,1-3.12-1A9.15,9.15,0,0,1,201.3,136c-1.18.56-2.32,1-3.5,1.49a49.48,49.48,0,0,1-9.39,2.65,11.42,11.42,0,0,1-2.52,5.89,11.21,11.21,0,0,1-6.5,3.88,20.87,20.87,0,0,1,4.37.37,23.27,23.27,0,0,1,3.89,1.19,9.61,9.61,0,0,1,2,1.06c.49.39,1.07.89,1.63,1.39a1.14,1.14,0,0,0,.63.38,1.88,1.88,0,0,0,.76.18l-.39.77a1.47,1.47,0,0,1-.75-.2,1.38,1.38,0,0,1-.87-.57,10.82,10.82,0,0,1-1.32-.88c-.81-.44-1.69-.94-2.51-1.38a22.36,22.36,0,0,0-3.37-.68,35.69,35.69,0,0,0-3.83-.37,19.21,19.21,0,0,1-13.46-6.41,19.66,19.66,0,0,1-5-12.08c-.25-3.08-.45-6.14-.56-9.21s-.13-6-.13-9l.93-16a21.27,21.27,0,0,0-4-12.77,21.62,21.62,0,0,0-7.76-6.53,34.81,34.81,0,0,0-11.28-2.44A35.55,35.55,0,0,0,120,81a82.78,82.78,0,0,0-26.67,27.5,157.68,157.68,0,0,0-11.16,18.63,160.8,160.8,0,0,0-9.22,22.72,51.85,51.85,0,0,1-1.74,5.51,63,63,0,0,1-2.83,7,1.06,1.06,0,0,0,.07,1.07.87.87,0,0,0,1.13.25,33.72,33.72,0,0,0,11.14-7.21,32.83,32.83,0,0,0,7.71-12.09,7.33,7.33,0,0,1-6.64,2.25l.06-1.18a9.35,9.35,0,0,0,2.63-.2,11.65,11.65,0,0,0,2.45-1A30.59,30.59,0,0,0,94,136.47a28.79,28.79,0,0,0,3.82-9.78c.51-1.8,1.13-3.68,1.82-5.51a46.07,46.07,0,0,1,2.13-4.2c-.62.13-1.12.19-1.68.32a7.22,7.22,0,0,1-1.14,0l.45-.81a12.74,12.74,0,0,0,5.88-1.63c1.81-1,4.08-3.26,5.33-4.21,2.56-2.12,4.25-4.19,7-6.83,3.56-3.44,7.71-7.33,12.71-8.07a31.5,31.5,0,0,1,10.09-.44,23.49,23.49,0,0,1,8.21,2.82l.5,1.25c-.62-.38-1.25-.75-1.88-1.06a10.19,10.19,0,0,0-1.88-.69,24.52,24.52,0,0,1,2.2,6.51,30.08,30.08,0,0,1,.17,6.77c0,1.19-2.49,9.71-2.56,16-.05,11.28,0,10.92,0,0a26.64,26.64,0,0,0-.43,9.16,27.74,27.74,0,0,0,2.88,9.65,46.29,46.29,0,0,0,10,11.9c1.87,1.76,3.87,3.45,5.81,5.14,2.12,1.69,4.2,3.31,6.39,4.89l.13.93-5.2-3.56a12.37,12.37,0,0,0,4.58,5.37,12.57,12.57,0,0,0,5.82,2.27,7.66,7.66,0,0,1,.94.24,8.81,8.81,0,0,1,.92.57l-.11.81c-.37-.19-.88-.38-1.24-.56l-.95-.25a13.27,13.27,0,0,1-7.08-3.2,13.84,13.84,0,0,1-4.27-6.19l-8.63-7.84a8.94,8.94,0,0,1,.24,2.58,8.13,8.13,0,0,1-.8,3,7.53,7.53,0,0,1-2.51-1.76,7.83,7.83,0,0,1-1.69-2.51l-1.26.58-.43,3.31-2.95-2.19c-2.44.95-4.89,1.95-7.14,3.07-2.44,1.19-4.83,2.56-7.14,3.95l-1.38.43a7,7,0,0,1-2.19,4.32,7.57,7.57,0,0,1-4.69,2.08l-1,4.45a7.25,7.25,0,0,1,2.64,6.45,6.94,6.94,0,0,1-4.07,5.57l-.38,4.95c.44.45,1,.82,1.44,1.31a10.75,10.75,0,0,1,1.51,2.32c1.19.25,2.38.43,3.56.63a28.92,28.92,0,0,0,4.14.62,33.64,33.64,0,0,1,9.21,2.14,32.14,32.14,0,0,1,7,3.69l-.62-2.69a2.73,2.73,0,0,1,.3-1.38,3.71,3.71,0,0,1,1.7-1.82l.69.88v-.07a3.41,3.41,0,0,0-1.63,1.57,3.36,3.36,0,0,0,.38,3.58,15.3,15.3,0,0,1,.81,2.26,10,10,0,0,1,.25,2.37,4.19,4.19,0,0,0,4,5.14,4.12,4.12,0,0,0,4.18-4.26,2.25,2.25,0,0,1-.19-1.26,2.21,2.21,0,0,1,.46-1.12,26.8,26.8,0,0,1,1.8-3.13,23.94,23.94,0,0,1,3-3.52,65.35,65.35,0,0,1,14.84-8A64,64,0,0,1,195,189.78a19.71,19.71,0,0,0,5-1.57,19.09,19.09,0,0,0,2.64-1.62l-.07-.07a8.43,8.43,0,0,1,.5-5.64,7.66,7.66,0,0,1,3.51-3.62l.12-4.33a7.52,7.52,0,0,1-3.32-6.77,7.93,7.93,0,0,1,3.83-6.33l-.07-4c-2.18-1.37-3-3.88-3.12-6.38M186.27,129a181.82,181.82,0,0,1-7.14-17.1c-.24-.68-.51-1.32-.75-1.94A52.53,52.53,0,0,1,176,96.45a55.34,55.34,0,0,1,.56-10.17,15.73,15.73,0,0,1,17.72-12v0a34.63,34.63,0,0,1,28.08,27.61,18.52,18.52,0,0,1-3.27-.94,23.87,23.87,0,0,1-3.63-1.55,3.74,3.74,0,0,0-.24-2.2,3.89,3.89,0,0,0-1.69-1.89,1.74,1.74,0,0,0-1.57.2,1.51,1.51,0,0,0-.7,1.31,2.34,2.34,0,0,0,0,1.57,3.44,3.44,0,0,0,1.37,2.12,27.1,27.1,0,0,1-.25,4.2,30.11,30.11,0,0,1-.8,3.64,29.74,29.74,0,0,1-4.83-5.26,28.08,28.08,0,0,1-4.25-8.38A17.29,17.29,0,0,0,200,87.86a24.47,24.47,0,0,0-2.44-3A6.62,6.62,0,0,0,187,90a42.1,42.1,0,0,0,1,7.51,39.14,39.14,0,0,0,3.89,10.23L200.69,122l-.07,1.13c1.5.26,1.18,2.57-.31,2.7-1.33.11-1.76-2.33-.45-2.65.88-.3-1.06-1.75-1.94-2.25a4.18,4.18,0,0,0-2.63-.43,2.41,2.41,0,0,0-.25-1.06,2.48,2.48,0,0,0-1.56-1.14,3.24,3.24,0,0,1-1.64-.31,4.56,4.56,0,0,1-1.63-1.18,4.56,4.56,0,0,1-.31,2.44,4.48,4.48,0,0,1-1.69,1.88,1.58,1.58,0,0,0,0,.94,1.22,1.22,0,0,0,.56.81,4.47,4.47,0,0,0-1.63,2.07,3.86,3.86,0,0,0,.32,3.38,1.39,1.39,0,0,1,.14,2.75,1.34,1.34,0,0,1-1.33-2.13Zm27.12-19.54c1.88,2.81,3.77,5.64,5.46,8.52,1.14,2.07,2.26,4.13,3.38,6.26a1,1,0,0,0,1.18.76,1,1,0,0,0,.58-1.45,49.92,49.92,0,0,1-2-7.32,35.42,35.42,0,0,1-.7-5.27,8.28,8.28,0,0,0-.49-2.37,14.43,14.43,0,0,0-1-1.63.93.93,0,0,0-.57-.25,1.75,1.75,0,0,0-.81.17Zm-.67-1.06,6.13-2.7a1,1,0,0,1,1.06-.57,1.14,1.14,0,0,1,1,.88l.44,1.46a1.88,1.88,0,0,0,.06.8,1.14,1.14,0,0,0,.13.49.94.94,0,0,0,1,.51.85.85,0,0,0,.82-.62,21.19,21.19,0,0,0,.17-2.57,15.42,15.42,0,0,0-.37-3.38c-1.38-.25-2.64-.65-4-1a38.92,38.92,0,0,1-4.06-1.7,2.06,2.06,0,0,1-.51.51c-.31.18-.57.37-.81.5-.14,1.13-.2,2.31-.32,3.46A28.72,28.72,0,0,1,212.72,108.41ZM214,98.32a.9.9,0,0,1-.84-.82.84.84,0,0,1,.84-.8.86.86,0,0,1,.8.8A.93.93,0,0,1,214,98.32ZM189.65,135.4l2-.56c.68-.24,1.42-.56,2.19-.82a2.4,2.4,0,0,0-2.84-1.19A2.25,2.25,0,0,0,189.65,135.4Zm3.58-9.09a1.44,1.44,0,0,1-1.49-1.42,1.56,1.56,0,0,1,1.49-1.57,1.62,1.62,0,0,1,1.55,1.57A1.49,1.49,0,0,1,193.23,126.31Zm.13-.61a1,1,0,0,1-.84-.81.9.9,0,0,1,.84-.82.83.83,0,0,1,.81.82A.87.87,0,0,1,193.36,125.7Zm1.82,5.94a1.76,1.76,0,1,1,0-3.51,1.76,1.76,0,0,1,0,3.51Zm-.27-.56a.94.94,0,1,1,.94-.93A.88.88,0,0,1,194.91,131.08Zm-10.84,5.57-8-9.89,2.06.33a12.89,12.89,0,0,1,2.38.74,13.33,13.33,0,0,1,1.06.88,7.83,7.83,0,0,1,.63,1.37,2.61,2.61,0,0,1,1.45-1.32,2.51,2.51,0,0,1,1.55,0,2.28,2.28,0,1,0,2.82-1.19,3,3,0,0,1,.19-2.7,3.17,3.17,0,0,1,2.51-1.69l.06-.7h-1a.51.51,0,0,1-.3-.93,5.29,5.29,0,0,0,1.05-1.25,4.35,4.35,0,0,0,.5-1.63,2.87,2.87,0,0,0,1.5.87h1a.86.86,0,0,1,.75.69,3.49,3.49,0,0,1,.05.75l-.87.69.56.38a4.09,4.09,0,0,1,2.64-.25,3.63,3.63,0,0,1,1.94,1.26,2.26,2.26,0,0,0,2.32,3.68,2.29,2.29,0,0,0,.63-4.13,1.55,1.55,0,0,1,.93-1,2.3,2.3,0,0,1,1.88-.32,2.84,2.84,0,0,1,.06-1.86,2.4,2.4,0,0,1,1.26-1.2,4.32,4.32,0,0,0,1-.76,2.74,2.74,0,0,0,.75-1.61l1.39,11.45-1.89,1.25c-.62-.23-1.25-.54-1.95-.74a6.93,6.93,0,0,0-2.31-.3,3.2,3.2,0,0,0-2.07.67,2.69,2.69,0,0,0-1.05,1.64,11.42,11.42,0,0,0-.14,2.12l-4.58,1.69a3.37,3.37,0,0,0-3.93-1.69,3.43,3.43,0,0,0-2.32,3.76Zm-4.64-4.82a.87.87,0,0,1-.85-.26,1.1,1.1,0,0,1-.2-1.12Zm1.58,2.25,1.25,1.51a.93.93,0,0,1-1.25-.37A1,1,0,0,1,181,134.08Zm27.82-12.65a1.21,1.21,0,0,0,.49-1,1,1,0,0,0-.68-.94Zm.42,3.95a.86.86,0,0,0,.39-1.07,1.53,1.53,0,0,0-.7-.68ZM186.52,140l12.15-3.63a71.77,71.77,0,0,0,8.77-4.39l-2.19-1.82a76.24,76.24,0,0,1-10.58,4.45,70.63,70.63,0,0,1-9.4,2.7,1.53,1.53,0,0,0,1.25,2.69Zm23.12-9,1.44-1.11a1.28,1.28,0,0,0-.32-1.77,1.35,1.35,0,0,0-1.06-.37l-2.07,1.37c.37.32.69.64,1,1S209.25,130.71,209.64,131Zm-9.33.63.93-.44v-.49l.19-.69a3.86,3.86,0,0,1,.37-.44,1.64,1.64,0,0,1,.76-.31,4.38,4.38,0,0,1,1.25.06c.39,0,.5.25.88.5l1.25-.62a6.06,6.06,0,0,0-2.07-.71c-.44-.06-.75-.06-1.05-.11a3,3,0,0,0-1.58.56,2,2,0,0,0-.74.88.68.68,0,0,0-.19.56A3.29,3.29,0,0,0,200.31,131.64Zm1.56-.63,2.07-.93-.37-.18a1.7,1.7,0,0,0-1.14,0C201.87,130.15,201.8,130.45,201.87,131Zm5.95.76,1-.57-2.2-1.75-.87.57Zm1.56,4.88.26,1.71a7.11,7.11,0,0,0,.55-3.27,6.56,6.56,0,0,0-.87-2.69l-.68.43a4.13,4.13,0,0,1,.74,2A4.08,4.08,0,0,1,209.38,136.65Zm-5.51-1.43a3.48,3.48,0,0,0,1.32,1.05,4.45,4.45,0,0,0,1.69.52,1.09,1.09,0,0,1,.5-1.46,1.07,1.07,0,0,1,1.19,0v-1.05a7.94,7.94,0,0,0-.3-1.31Zm3.89,17.1.2.12c.17-.56.48-.94,1-.94a1.28,1.28,0,0,1,1.14.82,5.86,5.86,0,0,0,.81-3.12,5.46,5.46,0,0,0-.76-2.77,1.18,1.18,0,0,1-1.19,1.31,1.24,1.24,0,0,1-1.18-.5,4,4,0,0,0-.88,2.39A4.93,4.93,0,0,0,207.76,152.32Zm.24-6.26a.76.76,0,0,0,.51.19.64.64,0,0,0,.63-.38l-.87-9.84a.75.75,0,0,0-.76-.32.62.62,0,0,0-.44.56Zm2.08,8.83a7.24,7.24,0,0,0,2.55-5.95,7.5,7.5,0,0,0-2.81-5.46l.2,1.31a7.24,7.24,0,0,1,1.56,4.65,7.71,7.71,0,0,1-1.56,4.08Zm-2.94,0,.05-1.44a6.68,6.68,0,0,1-1.25-3.95,6.29,6.29,0,0,1,1.32-3.76l-.19-1.61a7,7,0,0,0-2.57,5.43A7.33,7.33,0,0,0,207.14,154.89Zm.55,9.08c.13.18.27.5.51.5s.37-.32.57-.5l.44-11.16a1.14,1.14,0,0,0-.57-.37c-.25,0-.51.12-.56.31Zm-.5,5.44a1.62,1.62,0,0,1,1.25-.49,1.54,1.54,0,0,1,1.2.63,6,6,0,0,0,.62-2.44,6.3,6.3,0,0,0-.62-2.82,1.34,1.34,0,0,1-1.13,1.25,1.32,1.32,0,0,1-1.32-.82,3.69,3.69,0,0,0-.69,2.25A4.08,4.08,0,0,0,207.19,169.41Zm2.58,1.57v1.46a6.94,6.94,0,0,0,2.86-5.21,7.38,7.38,0,0,0-2.68-6.07l-.18,1.74a6.58,6.58,0,0,1,1.49,4.33A6.81,6.81,0,0,1,209.77,171Zm-3.14,1.46.06-1.77a6.67,6.67,0,0,1-1.06-3.89,6.41,6.41,0,0,1,1.12-3.5l.06-1.63a6.32,6.32,0,0,0-2.81,5.21A9.13,9.13,0,0,0,206.63,172.44Zm.44,8.64a.56.56,0,0,0,.5.62.86.86,0,0,0,.63-.32l.44-11.33c-.13-.19-.25-.33-.44-.33a.58.58,0,0,0-.76.51Zm.37,7.13.52,1.14a6.92,6.92,0,0,0,3.38-4.58,7.48,7.48,0,0,0-1.52-6l-.5.63a8,8,0,0,1,.57,4.34A7.24,7.24,0,0,1,207.44,188.21Zm-3.07.77.64-1a6.16,6.16,0,0,1-.57-4.5,6.9,6.9,0,0,1,1.93-3.14l.2-1.88a6.91,6.91,0,0,0-3.45,4.64A7.53,7.53,0,0,0,204.37,189Zm1.26-4.83,1.44-1.38-.63-.94Zm.45,3.18-3,12c-.13.32-.06.57.2.69a.63.63,0,0,0,.55-.06l3.2-12.53a.81.81,0,0,0-.57-.37C206.37,187.09,206.26,187.27,206.08,187.33Zm-8.59,17.1.93-.43a7.44,7.44,0,0,1,1.5-4.07,8.38,8.38,0,0,1,2.77-2.26l-.32-1.11a7.18,7.18,0,0,0-3.08,2.12A7.83,7.83,0,0,0,197.49,204.43Zm2.19,2.95a7,7,0,0,0,6.21-10.33l-.88.62a6.67,6.67,0,0,1-1.44,6.27,7.14,7.14,0,0,1-3.52,2.07ZM189.47,209a.37.37,0,0,0-.24.49c0,.32.24.44.5.44l10.45-4.63c0-.13.13-.24,0-.37a.42.42,0,0,0-.37-.33Zm-5.95-4.53.44.89a7.77,7.77,0,0,1,4.12.5,7.39,7.39,0,0,1,2.44,1.56l.9-.17a12,12,0,0,0-3.58-2.7A7.92,7.92,0,0,0,183.52,204.43Zm-2.38,3A7.21,7.21,0,0,0,192.78,211l-.87-.5a6.27,6.27,0,0,1-5.89.5,5.79,5.79,0,0,1-3.44-3.44Zm2.38-.07-10-6.32a.43.43,0,0,1,.33-.56.27.27,0,0,1,.44.05l9.82,6a.56.56,0,0,1,.13.7A.71.71,0,0,1,183.52,207.38Zm-7.45-6.69,1.12.17a12,12,0,0,0-.44-2.87,8.06,8.06,0,0,0-1.13-2.32l-1.37.68a7.17,7.17,0,0,1,1,2A11.28,11.28,0,0,1,176.07,200.69Zm-7-.76-.51,1.57a9.61,9.61,0,0,0,2.63,1.5,8.2,8.2,0,0,0,3.52.38l-.51-.83a6.32,6.32,0,0,1-3-.87A4.86,4.86,0,0,1,169.05,199.93ZM209.14,178l.94.13a35.61,35.61,0,0,0,2.44-37.28l-1.69-2.57-1.51,1.51.13,2.64v-.13a8.13,8.13,0,0,1,3.94,6.83,8.26,8.26,0,0,1-3.62,7L209.7,160a8.22,8.22,0,0,1,3.44,7.21,7.82,7.82,0,0,1-3.82,6.39Zm-93.6,18.48a45.48,45.48,0,0,1-6.06-2.55c-2.08-1.08-4.14-2.2-6.09-3.4a7.91,7.91,0,0,1,2.64-.88,8.07,8.07,0,0,1,2.5-.12l.12-.88a4.11,4.11,0,0,0-1.25-.18,3.83,3.83,0,0,0-1.62.39,65.61,65.61,0,0,1-9.15,1.85,59,59,0,0,1-8.83.63v.06a7.43,7.43,0,0,1-2-.55,6.25,6.25,0,0,1-2.12-1.46,2.6,2.6,0,0,1,.7-2.55,2.41,2.41,0,0,1,1.18-.68l24.68-12.73h.07c1.37-.69,2.75-1.37,4.13-1.94s2.56-.93,4-1.38a4.93,4.93,0,0,0,.56,1.82,5.66,5.66,0,0,0,.88,1.62l-.69,4a7.08,7.08,0,0,0-5,5.76,7.19,7.19,0,0,0,3.26,6.95l-.38,5.12ZM132.91,161h1c.06-.17.19-.3.32-.55a1.81,1.81,0,0,1,.62-.57,4.52,4.52,0,0,1,2.69.33,5.9,5.9,0,0,1,1.76.87l1.25-.7a6.25,6.25,0,0,0-2.68-1.55,5.93,5.93,0,0,0-3.77.24,2.72,2.72,0,0,0-.76.81A6.28,6.28,0,0,0,132.91,161Zm2.5.51L125.77,165a.35.35,0,0,0-.13.43.45.45,0,0,0,.56.45l9.77-3.45a.93.93,0,0,0,.07-.63A.68.68,0,0,0,135.41,161.46Zm-12.47,9.72-.19,1.26a6.4,6.4,0,0,0,4.07-1.77,6.53,6.53,0,0,0,2.06-4.78l-1.43.21a5.53,5.53,0,0,1-1.63,3.52A5.36,5.36,0,0,1,122.94,171.18Zm-.19-2.64a3.52,3.52,0,0,0,.38.63,4.89,4.89,0,0,1,.12,1,4.3,4.3,0,0,0,1.57-.88,4.47,4.47,0,0,0,1-1.63Zm-2.63,3.14.5-1.33a5.29,5.29,0,0,1,1.19-4.57,5.73,5.73,0,0,1,5.14-2l.82-.89a6.16,6.16,0,0,0-7.65,8.78Zm1.06-1.45-2,10.53a.69.69,0,0,0,.44.24,1,1,0,0,0,.62-.18l2-10.59c-.18-.12-.3-.25-.44-.25A.67.67,0,0,0,121.18,170.23ZM117.8,186l-.25-2a5.27,5.27,0,0,1,1.07-3.18,1,1,0,0,0,.8,1,1,1,0,0,0,1.2-.63,5.26,5.26,0,0,1,.45,2.86,4.79,4.79,0,0,1-1,2.39,1.37,1.37,0,0,0-.94-1.24A1.25,1.25,0,0,0,117.8,186Zm2.26,3a7.12,7.12,0,0,0,3-4.64,7.3,7.3,0,0,0-1.56-5.59l-.43,1.07a6.06,6.06,0,0,1,1.18,4.33,6.32,6.32,0,0,1-2.06,3.63Zm-2.43-.33.17-1.42a5.9,5.9,0,0,1-.93-3.58,5.76,5.76,0,0,1,1.8-4.09l.32-1.38a6.13,6.13,0,0,0-1.36,10.47Zm-.08,9.89a.6.6,0,0,0,.5.63.61.61,0,0,0,.7-.49l.62-12a.76.76,0,0,0-1.13,0Zm1.7,6.35-.07,1.74a5.81,5.81,0,0,0,.31-10.15l-.12,1a5.69,5.69,0,0,1,1.32,3.81A5.83,5.83,0,0,1,119.25,204.89Zm-2.76,1.81.25-1.68a5.45,5.45,0,0,1-1.32-3.72,5.69,5.69,0,0,1,1.49-3.81v-1.58a6.39,6.39,0,0,0-.42,10.79Zm.8,9.39a.51.51,0,0,0,.39.51.62.62,0,0,0,.61-.19l.26-11.9a.69.69,0,0,0-.63-.2c-.18.06-.29.25-.37.5Zm-1.5-2.06a6,6,0,0,0-.62,9.51,4.06,4.06,0,0,0,2.25.81,7.93,7.93,0,0,0,1.51-.16,6.7,6.7,0,0,0,2.44-4.15,6.61,6.61,0,0,0-2-5.69l-.3,1.24a5.73,5.73,0,0,1,.94,3.77,5.55,5.55,0,0,1-1.51,3.44,1.35,1.35,0,0,1-.92.63,1.75,1.75,0,0,1-1.64-.76,5.4,5.4,0,0,1-1.38-3.31,5.94,5.94,0,0,1,1.55-4.2Zm45.92-10.9a4.16,4.16,0,0,0-.26,3.07,4.78,4.78,0,0,0,1.53,2.13l3.68.06a8.25,8.25,0,0,0,1.33-3.88,9,9,0,0,0-.69-3.45,2.35,2.35,0,0,0,.8-.75,1.89,1.89,0,0,0,.32-1.31Zm1.13,6.25-1,14.05a3.24,3.24,0,0,1-.81,1.62,4.63,4.63,0,0,1-1.25,1l11.53,2v.08c.61.13,1.29.25,2.06.43.61.26,1.25.45,1.74.71a8.82,8.82,0,0,1,2.21-1.27,13,13,0,0,1,3.19-1.06,9.58,9.58,0,0,1-3.39-2.32,12.72,12.72,0,0,1-1.93-2.38c-.94.06-1.82.06-2.77.06a33.33,33.33,0,0,1-4.25-.06,5.37,5.37,0,0,0,1.38,1,9,9,0,0,0,1.62.75v.63A7.42,7.42,0,0,1,168,223.3a6.39,6.39,0,0,1-2.53-5.27l.4-8.33Zm-12.33,6.78-1.26,15.45a4.62,4.62,0,0,1-.32,1.14A5.53,5.53,0,0,1,148,234l8.33,2.51a19.17,19.17,0,0,1,2.7,1.18c.68.49,1.3.89,1.93,1.44a15.79,15.79,0,0,1,8.53-3.44,12.17,12.17,0,0,1-1.89-1.76c-.24-.37-.57-.75-.82-1.18-1.62-.2-3.24-.37-4.81-.7-2-.25-3.94-.55-5.95-.94a5.19,5.19,0,0,0,1.51,1.13,5.65,5.65,0,0,0,1.74.51l-.19.5a6.26,6.26,0,0,1-4.26-2.07,6.58,6.58,0,0,1-1.8-4.32l.5-10.47Z"/></g></g></svg>